<?xml version="1.0" encoding="iso-8859-1"?>
<!-- Generator: Adobe Illustrator 19.0.0, SVG Export Plug-In . SVG Version: 6.00 Build 0)  -->
<svg version="1.1" id="Layer_1" xmlns="http://www.w3.org/2000/svg" xmlns:xlink="http://www.w3.org/1999/xlink" x="0px" y="0px"
	 viewBox="0 0 330.001 330.001" style="enable-background:new 0 0 330.001 330.001;" xml:space="preserve">
<g id="XMLID_2_">
	<path id="XMLID_4_" d="M325.607,304.394l-63.48-63.48c38.571-29.035,63.522-64.92,65.247-67.436c3.502-5.11,3.502-11.847,0-16.956
		c-2.925-4.269-72.658-104.545-162.37-104.545c-25.872,0.001-50.076,8.346-71.499,20.314L25.606,4.394
		c-5.857-5.858-15.354-5.859-21.213,0s-5.858,15.355,0,21.213l63.479,63.478L253.71,274.922l50.684,50.684
		c2.93,2.929,6.768,4.394,10.606,4.394c3.839,0.001,7.678-1.464,10.606-4.394C331.466,319.748,331.465,310.252,325.607,304.394z"/>
	<path id="XMLID_5_" d="M2.626,156.523c-3.501,5.109-3.5,11.844,0,16.954c2.924,4.27,72.649,104.546,162.377,104.547
		c14.667,0,28.796-2.688,42.189-7.192L44.848,108.487C19.593,132.087,3.977,154.55,2.626,156.523z"/>
</g>
<g>
</g>
<g>
</g>
<g>
</g>
<g>
</g>
<g>
</g>
<g>
</g>
<g>
</g>
<g>
</g>
<g>
</g>
<g>
</g>
<g>
</g>
<g>
</g>
<g>
</g>
<g>
</g>
<g>
</g>
</svg>
