<?xml version="1.0" encoding="iso-8859-1"?>
<!-- Generator: Adobe Illustrator 19.0.0, SVG Export Plug-In . SVG Version: 6.00 Build 0)  -->
<svg version="1.1" id="Layer_1" xmlns="http://www.w3.org/2000/svg" xmlns:xlink="http://www.w3.org/1999/xlink" x="0px" y="0px"
	 viewBox="0 0 512 512" style="enable-background:new 0 0 512 512;" xml:space="preserve">
<g>
	<g>
		<g>
			<rect x="33.391" y="300.522" width="33.39" height="44.522"/>
			<rect x="66.781" y="345.043" width="33.391" height="33.391"/>
		</g>
	</g>
</g>
<g>
	<g>
		<g>
			<rect y="144.696" width="33.391" height="155.826"/>
			<rect x="100.173" y="33.391" width="66.783" height="33.391"/>
			<polygon points="66.781,100.174 33.391,100.174 33.391,144.696 66.783,144.696 66.783,100.174 100.173,100.174 100.173,66.783 
				66.781,66.783 			"/>
		</g>
	</g>
</g>
<g>
	<g>
		<polygon points="411.826,66.783 411.826,33.391 345.043,33.391 345.043,0 166.955,0 166.955,33.391 345.042,33.391 
			345.042,66.783 411.825,66.783 411.825,100.174 445.216,100.174 445.216,66.783 		"/>
	</g>
</g>
<g>
	<g>
		<g>
			<rect x="445.217" y="100.174" width="33.39" height="44.522"/>
			<rect x="478.608" y="144.696" width="33.392" height="189.217"/>
		</g>
	</g>
</g>
<g>
	<g>
		<rect x="445.217" y="333.913" width="33.391" height="44.522"/>
	</g>
</g>
<g>
	<g>
		<g>
			<rect x="267.13" y="445.217" width="77.912" height="33.391"/>
			<polygon points="100.173,445.217 66.781,445.217 66.781,512 267.13,512 267.13,478.609 100.173,478.609 			"/>
			<rect x="345.042" y="411.826" width="66.783" height="33.391"/>
		</g>
	</g>
</g>
<g>
	<g>
		<polygon points="100.173,378.435 100.173,445.217 133.564,445.217 133.564,411.826 166.955,411.826 166.955,378.435 		"/>
	</g>
</g>
<g>
	<g>
		<rect x="411.826" y="378.435" width="33.391" height="33.391"/>
	</g>
</g>
<g>
	<g>
		<rect x="211.478" y="311.652" width="89.043" height="33.391"/>
	</g>
</g>
<g>
	<g>
		<polygon points="178.087,211.478 178.087,311.652 211.478,311.652 211.478,244.87 300.522,244.87 300.522,311.652 
			333.913,311.652 333.913,211.478 		"/>
	</g>
</g>
<g>
	<g>
		<rect x="100.174" y="133.565" width="44.522" height="77.913"/>
	</g>
</g>
<g>
	<g>
		<rect x="367.304" y="133.565" width="44.522" height="77.913"/>
	</g>
</g>
<g>
</g>
<g>
</g>
<g>
</g>
<g>
</g>
<g>
</g>
<g>
</g>
<g>
</g>
<g>
</g>
<g>
</g>
<g>
</g>
<g>
</g>
<g>
</g>
<g>
</g>
<g>
</g>
<g>
</g>
</svg>
