<?xml version="1.0" encoding="iso-8859-1"?>
<!-- Generator: Adobe Illustrator 19.0.0, SVG Export Plug-In . SVG Version: 6.00 Build 0)  -->
<svg version="1.1" id="Layer_1" xmlns="http://www.w3.org/2000/svg" xmlns:xlink="http://www.w3.org/1999/xlink" x="0px" y="0px"
	 viewBox="0 0 512 512" style="enable-background:new 0 0 512 512;" xml:space="preserve">
<g>
	<g>
		<path d="M478.608,144.696v-44.522h-33.39V66.783h-33.391V33.391h-66.783V0H166.957v33.391h-66.784v33.391H66.781v33.391h-33.39
			v44.522H0v189.217h33.39v44.522h33.39v33.391h66.785l-0.001,33.391h-33.391v33.391h-33.39V512H267.13v-33.391h77.913v-33.391
			h66.781v-33.391h33.391v-33.391h33.391v-44.522h33.391L512,144.696H478.608z M144.696,211.478h-44.522v-77.913h44.522V211.478z
			 M333.913,311.652h-33.391v33.391h-89.043v-33.391h-33.391V211.478h155.826V311.652z M411.826,211.478h-44.522v-77.913h44.522
			V211.478z"/>
	</g>
</g>
<g>
</g>
<g>
</g>
<g>
</g>
<g>
</g>
<g>
</g>
<g>
</g>
<g>
</g>
<g>
</g>
<g>
</g>
<g>
</g>
<g>
</g>
<g>
</g>
<g>
</g>
<g>
</g>
<g>
</g>
</svg>
