<svg xmlns="http://www.w3.org/2000/svg" viewBox="0 0 8 8" height="8" width="8">
  <path d="M 1.2382812 0.32226562 L 0.5703125 0.94726562 L 1.5839844 2.0292969 C 0.5772288 2.8987837 -8.4143219e-16 4 0 4 C 0 4 1.4992969 7 4.0292969 7 C 4.6772576 7 5.2452479 6.7793479 5.7480469 6.4726562 L 6.859375 7.6582031 L 7.5273438 7.03125 L 1.2382812 0.32226562 z M 4.0292969 1 C 3.5453193 1 3.1006164 1.1115003 2.6953125 1.2890625 L 3.4453125 2.0878906 C 3.622448 2.0361138 3.8067171 2 4 2 C 5.11 2 6 2.9 6 4 C 6 4.2407532 5.9519008 4.4684228 5.875 4.6816406 L 6.7832031 5.6523438 C 7.5596898 4.8542503 8 4 8 4 C 8 4 6.4992969 1 4.0292969 1 z M 2.3710938 2.8691406 L 3.0898438 3.6347656 C 3.0385457 3.7481529 3 3.8672532 3 4 C 3 4.55 3.45 5 4 5 C 4.1107237 5 4.2114094 4.9727967 4.3085938 4.9355469 L 5.0292969 5.7050781 C 4.7288245 5.8882046 4.3800481 6 4 6 C 2.9 6 2 5.11 2 4 C 2 3.5774353 2.1436786 3.1918569 2.3710938 2.8691406 z " />
</svg>
