<?xml version="1.0" encoding="UTF-8" standalone="no"?>
<!-- Generator: Adobe Illustrator 16.0.0, SVG Export Plug-In . SVG Version: 6.00 Build 0)  -->

<svg
   xmlns:dc="http://purl.org/dc/elements/1.1/"
   xmlns:cc="http://creativecommons.org/ns#"
   xmlns:rdf="http://www.w3.org/1999/02/22-rdf-syntax-ns#"
   xmlns:svg="http://www.w3.org/2000/svg"
   xmlns="http://www.w3.org/2000/svg"
   xmlns:sodipodi="http://sodipodi.sourceforge.net/DTD/sodipodi-0.dtd"
   xmlns:inkscape="http://www.inkscape.org/namespaces/inkscape"
   version="1.1"
   id="Layer_1"
   x="0px"
   y="0px"
   width="192.84299"
   height="121.688"
   viewBox="0 0 192.843 121.688"
   enable-background="new 0 0 500.843 121.688"
   xml:space="preserve"
   inkscape:version="0.92.5 (2060ec1f9f, 2020-04-08)"
   sodipodi:docname="logo-small.svg"><metadata
     id="metadata4443"><rdf:RDF><cc:Work
         rdf:about=""><dc:format>image/svg+xml</dc:format><dc:type
           rdf:resource="http://purl.org/dc/dcmitype/StillImage" /><dc:title></dc:title></cc:Work></rdf:RDF></metadata><defs
     id="defs4441" /><sodipodi:namedview
     pagecolor="#ffffff"
     bordercolor="#666666"
     borderopacity="1"
     objecttolerance="10"
     gridtolerance="10"
     guidetolerance="10"
     inkscape:pageopacity="0"
     inkscape:pageshadow="2"
     inkscape:window-width="2560"
     inkscape:window-height="1376"
     id="namedview4439"
     showgrid="false"
     inkscape:zoom="3.5465251"
     inkscape:cx="22.441149"
     inkscape:cy="94.990043"
     inkscape:window-x="0"
     inkscape:window-y="27"
     inkscape:window-maximized="1"
     inkscape:current-layer="g4415"
     inkscape:pagecheckerboard="true" /><g
     id="g4367"><g
       id="g4415"><path
         d="M 135.251,119.94375 V 1.351 h 56.83248 v 17.740067 h -36.4657 v 30.552337 h 27.26714 V 67.383471 H 155.61778 V 119.94519 H 135.251 Z"
         id="path4417"
         style="fill:#f1f1f1;fill-opacity:0.83529413;stroke-width:1.44087613"
         inkscape:connector-curvature="0" /></g><g
       id="g4433"><path
         d="M 0,30.34 C 0,13.612 9.84,0 31.161,0 c 21.32,0 31.16,13.612 31.16,30.34 v 61.009 c 0,16.729 -9.84,30.34 -31.16,30.34 C 9.84,121.688 0,108.077 0,91.349 Z m 20.336,60.516 c 0,8.856 2.624,13.12 10.824,13.12 8.2,0 10.824,-4.264 10.824,-13.12 V 30.832 c 0,-8.856 -2.624,-13.12 -10.824,-13.12 -8.2,0 -10.824,4.264 -10.824,13.12 z"
         id="path4435"
         inkscape:connector-curvature="0"
         style="fill:#00abba" /><path
         d="M 73.308,19.352 V 1.64 H 127.1 V 20.993 L 89.707,102.338 H 127.1 V 120.05 H 68.716 v -19.353 l 37.885,-81.345 z"
         id="path4437"
         inkscape:connector-curvature="0"
         style="fill:#00abba" /></g></g></svg>