<?xml version="1.0" encoding="UTF-8" standalone="no"?>
<!-- Generator: Adobe Illustrator 16.0.0, SVG Export Plug-In . SVG Version: 6.00 Build 0)  -->

<svg
   xmlns:dc="http://purl.org/dc/elements/1.1/"
   xmlns:cc="http://creativecommons.org/ns#"
   xmlns:rdf="http://www.w3.org/1999/02/22-rdf-syntax-ns#"
   xmlns:svg="http://www.w3.org/2000/svg"
   xmlns="http://www.w3.org/2000/svg"
   xmlns:sodipodi="http://sodipodi.sourceforge.net/DTD/sodipodi-0.dtd"
   xmlns:inkscape="http://www.inkscape.org/namespaces/inkscape"
   version="1.1"
   id="Layer_1"
   x="0px"
   y="0px"
   width="500.843px"
   height="121.688px"
   viewBox="0 0 500.843 121.688"
   enable-background="new 0 0 500.843 121.688"
   xml:space="preserve"
   inkscape:version="0.91 r13725"
   sodipodi:docname="logo.svg"><metadata
     id="metadata4443"><rdf:RDF><cc:Work
         rdf:about=""><dc:format>image/svg+xml</dc:format><dc:type
           rdf:resource="http://purl.org/dc/dcmitype/StillImage" /></cc:Work></rdf:RDF></metadata><defs
     id="defs4441" /><sodipodi:namedview
     pagecolor="#ffffff"
     bordercolor="#666666"
     borderopacity="1"
     objecttolerance="10"
     gridtolerance="10"
     guidetolerance="10"
     inkscape:pageopacity="0"
     inkscape:pageshadow="2"
     inkscape:window-width="2560"
     inkscape:window-height="1374"
     id="namedview4439"
     showgrid="false"
     inkscape:zoom="3.5465251"
     inkscape:cx="290.79194"
     inkscape:cy="58.936278"
     inkscape:window-x="0"
     inkscape:window-y="27"
     inkscape:window-maximized="1"
     inkscape:current-layer="Layer_1" /><g
     id="g4367"><g
       id="g4369"><path
         fill="#666666"
         d="M144.182,96.946l5.087,23.103h-2.496l-1.376-6.848h-5.888l-1.376,6.848h-2.496l5.087-23.103H144.182z     M139.862,111.09h5.184l-2.56-12.415h-0.064L139.862,111.09z"
         id="path4371"
         style="fill:#010400;fill-opacity:0.83529413" /><path
         fill="#666666"
         d="M155.894,96.946v16.959c0,2.336,0.672,4.352,3.392,4.352s3.392-2.016,3.392-4.352V96.946h2.496v17.023    c0,3.711-1.728,6.399-5.888,6.399s-5.888-2.688-5.888-6.399V96.946H155.894z"
         id="path4373"
         style="fill:#010400;fill-opacity:0.83529413" /><path
         fill="#666666"
         d="M179.381,102.898c-0.192-2.368-1.152-4.16-3.552-4.16c-1.92,0-3.167,1.28-3.167,3.04    c0,5.216,9.279,5.279,9.279,12.703c0,3.68-2.112,5.888-5.92,5.888c-3.616,0-5.792-2.656-5.855-6.528h2.304    c0.064,2.721,1.344,4.416,3.808,4.416c2.08,0,3.423-1.344,3.423-3.808c0-5.248-9.279-5.855-9.279-12.447    c0-3.264,2.24-5.375,5.568-5.375s5.503,2.239,5.695,6.271H179.381z"
         id="path4375"
         style="fill:#010400;fill-opacity:0.83529413" /><path
         fill="#666666"
         d="M197.141,96.946v2.112h-4.736v20.99h-2.496v-20.99h-4.735v-2.112H197.141z"
         id="path4377"
         style="fill:#010400;fill-opacity:0.83529413" /><path
         fill="#666666"
         d="M201.238,96.946h5.567c3.712,0,6.336,2.176,6.336,5.983c0,2.592-1.152,4.768-3.712,5.664l3.903,11.455    h-2.624l-3.711-10.943l-3.264,0.128v10.815h-2.496V96.946z M203.734,107.058h2.176c3.583,0,4.735-1.408,4.735-4    s-1.152-3.999-4.735-3.999h-2.176V107.058z"
         id="path4379"
         style="fill:#010400;fill-opacity:0.83529413" /><path
         fill="#666666"
         d="M225.685,96.946l5.088,23.103h-2.496l-1.376-6.848h-5.888l-1.376,6.848h-2.495l5.087-23.103H225.685z     M221.366,111.09h5.184l-2.561-12.415h-0.063L221.366,111.09z"
         id="path4381"
         style="fill:#010400;fill-opacity:0.83529413" /><path
         fill="#666666"
         d="M237.397,96.946v20.99h7.487v2.112h-9.983V96.946H237.397z"
         id="path4383"
         style="fill:#010400;fill-opacity:0.83529413" /><path
         fill="#666666"
         d="M251.765,96.946v23.103h-2.496V96.946H251.765z"
         id="path4385"
         style="fill:#010400;fill-opacity:0.83529413" /><path
         fill="#666666"
         d="M264.628,96.946l5.087,23.103h-2.495l-1.376-6.848h-5.888l-1.376,6.848h-2.496l5.088-23.103H264.628z     M260.308,111.09h5.184l-2.56-12.415h-0.064L260.308,111.09z"
         id="path4387"
         style="fill:#010400;fill-opacity:0.83529413" /><path
         fill="#666666"
         d="M277.427,96.946l5.951,17.023h0.064V96.946h2.496v23.103h-2.688l-7.167-20.095h-0.064v20.095h-2.495    V96.946H277.427z"
         id="path4389"
         style="fill:#010400;fill-opacity:0.83529413" /><path
         fill="#666666"
         d="M310.482,96.946v2.112h-4.735v20.99h-2.496v-20.99h-4.735v-2.112H310.482z"
         id="path4391"
         style="fill:#010400;fill-opacity:0.83529413" /><path
         fill="#666666"
         d="M325.138,96.946v2.112h-8.063v7.871h5.951v2.112h-5.951v8.895h8.447v2.112h-10.943V96.946H325.138z"
         id="path4393"
         style="fill:#010400;fill-opacity:0.83529413" /><path
         fill="#666666"
         d="M337.234,96.946l5.088,23.103h-2.496l-1.376-6.848h-5.888l-1.376,6.848h-2.495l5.087-23.103H337.234z     M332.915,111.09h5.184l-2.561-12.415h-0.063L332.915,111.09z"
         id="path4395"
         style="fill:#010400;fill-opacity:0.83529413" /><path
         fill="#666666"
         d="M350.098,96.946l4.031,17.471h0.064l3.936-17.471h3.968v23.103h-2.304V98.866h-0.064l-4.8,21.183h-1.632    l-4.8-21.183h-0.063v21.183h-2.304V96.946H350.098z"
         id="path4397"
         style="fill:#010400;fill-opacity:0.83529413" /><path
         fill="#666666"
         d="M376.561,96.946h9.92v2.112h-7.424v7.871h5.567v2.112h-5.567v11.007h-2.496V96.946z"
         id="path4399"
         style="fill:#010400;fill-opacity:0.83529413" /><path
         fill="#666666"
         d="M396.625,120.369c-3.903,0-6.527-3.264-6.527-11.871s2.624-11.871,6.527-11.871    c3.904,0,6.528,3.264,6.528,11.871S400.529,120.369,396.625,120.369z M396.625,98.738c-2.239,0-4.031,1.92-4.031,9.76    c0,7.839,1.792,9.759,4.031,9.759c2.24,0,4.032-1.92,4.032-9.759C400.657,100.658,398.865,98.738,396.625,98.738z"
         id="path4401"
         style="fill:#010400;fill-opacity:0.83529413" /><path
         fill="#666666"
         d="M408.465,96.946h5.567c3.712,0,6.335,2.176,6.335,5.983c0,2.592-1.151,4.768-3.711,5.664l3.903,11.455    h-2.624l-3.712-10.943l-3.264,0.128v10.815h-2.495V96.946z M410.96,107.058h2.176c3.584,0,4.736-1.408,4.736-4    s-1.152-3.999-4.736-3.999h-2.176V107.058z"
         id="path4403"
         style="fill:#010400;fill-opacity:0.83529413" /><path
         fill="#666666"
         d="M435.697,96.946v2.112h-4.736v20.99h-2.495v-20.99h-4.736v-2.112H435.697z"
         id="path4405"
         style="fill:#010400;fill-opacity:0.83529413" /><path
         fill="#666666"
         d="M439.793,96.946h5.567c3.712,0,6.335,2.176,6.335,5.983c0,2.592-1.151,4.768-3.711,5.664l3.903,11.455    h-2.624l-3.712-10.943l-3.264,0.128v10.815h-2.495V96.946z M442.289,107.058h2.176c3.584,0,4.736-1.408,4.736-4    s-1.152-3.999-4.736-3.999h-2.176V107.058z"
         id="path4407"
         style="fill:#010400;fill-opacity:0.83529413" /><path
         fill="#666666"
         d="M468.081,96.946v2.112h-8.063v7.871h5.952v2.112h-5.952v8.895h8.447v2.112h-10.942V96.946H468.081z"
         id="path4409"
         style="fill:#010400;fill-opacity:0.83529413" /><path
         fill="#666666"
         d="M481.712,102.898c-0.192-2.368-1.152-4.16-3.552-4.16c-1.92,0-3.168,1.28-3.168,3.04    c0,5.216,9.279,5.279,9.279,12.703c0,3.68-2.111,5.888-5.919,5.888c-3.616,0-5.792-2.656-5.855-6.528h2.304    c0.063,2.721,1.344,4.416,3.808,4.416c2.08,0,3.424-1.344,3.424-3.808c0-5.248-9.279-5.855-9.279-12.447    c0-3.264,2.239-5.375,5.567-5.375s5.504,2.239,5.695,6.271H481.712z"
         id="path4411"
         style="fill:#010400;fill-opacity:0.83529413" /><path
         fill="#666666"
         d="M497.648,102.898c-0.192-2.368-1.152-4.16-3.552-4.16c-1.92,0-3.168,1.28-3.168,3.04    c0,5.216,9.279,5.279,9.279,12.703c0,3.68-2.111,5.888-5.919,5.888c-3.616,0-5.792-2.656-5.855-6.528h2.304    c0.063,2.721,1.344,4.416,3.808,4.416c2.08,0,3.424-1.344,3.424-3.808c0-5.248-9.279-5.855-9.279-12.447    c0-3.264,2.239-5.375,5.567-5.375s5.504,2.239,5.695,6.271H497.648z"
         id="path4413"
         style="fill:#010400;fill-opacity:0.83529413" /></g><g
       id="g4415"><path
         fill="#666666"
         d="M135.251,83.657V1.351h39.443v12.312h-25.308v21.204h18.924v12.312h-18.924v36.479H135.251z"
         id="path4417"
         style="fill:#010400;fill-opacity:0.83529413" /><path
         fill="#666666"
         d="M179.938,21.3c0-11.628,6.84-21.09,21.66-21.09c14.82,0,21.66,9.462,21.66,21.09v42.407    c0,11.628-6.84,21.09-21.66,21.09c-14.82,0-21.66-9.462-21.66-21.09V21.3z M194.074,63.365c0,6.156,1.824,9.12,7.523,9.12    c5.7,0,7.524-2.964,7.524-9.12V21.642c0-6.155-1.824-9.119-7.524-9.119c-5.699,0-7.523,2.964-7.523,9.119V63.365z"
         id="path4419"
         style="fill:#010400;fill-opacity:0.83529413" /><path
         fill="#666666"
         d="M245.145,83.657h-14.136V1.351h19.836c15.846,0,23.939,6.726,23.939,24.281    c0,13.224-5.13,18.582-9.918,20.748l11.971,37.277h-14.364l-10.032-34.086c-1.823,0.229-4.787,0.343-7.296,0.343V83.657z     M245.145,38.286h5.017c7.638,0,10.487-2.851,10.487-12.654s-2.85-12.653-10.487-12.653h-5.017V38.286z"
         id="path4421"
         style="fill:#010400;fill-opacity:0.83529413" /><path
         fill="#666666"
         d="M290.29,13.662h-13.68V1.351h41.495v12.312h-13.68v69.995H290.29V13.662z"
         id="path4423"
         style="fill:#010400;fill-opacity:0.83529413" /><path
         fill="#666666"
         d="M334.634,83.657h-14.136V1.351h19.836c15.846,0,23.939,6.726,23.939,24.281    c0,13.224-5.13,18.582-9.918,20.748l11.971,37.277h-14.364L341.93,49.571c-1.823,0.229-4.787,0.343-7.296,0.343V83.657z     M334.634,38.286h5.017c7.638,0,10.487-2.851,10.487-12.654s-2.85-12.653-10.487-12.653h-5.017V38.286z"
         id="path4425"
         style="fill:#010400;fill-opacity:0.83425415" /><path
         fill="#666666"
         d="M371.571,83.657V1.351h37.848v12.312h-23.712v21.204h18.24v12.312h-18.24v24.168h25.308v12.312H371.571z"
         id="path4427"
         style="fill:#010400;fill-opacity:0.83529413" /><path
         fill="#666666"
         d="M442.021,21.642c-0.57-7.067-4.332-9.119-7.523-9.119c-4.561,0-7.068,2.964-7.068,8.094    c0,14.021,28.728,20.748,28.728,43.091c0,13.566-9.12,21.09-22.344,21.09c-13.109,0-20.634-10.487-21.203-22.8l13.451-1.938    c0.57,8.322,3.876,12.426,8.437,12.426c4.901,0,8.207-2.622,8.207-7.523c0-16.302-28.728-20.634-28.728-44.231    c0-13.11,7.98-20.521,21.888-20.521c11.515,0,18.354,8.322,19.608,19.95L442.021,21.642z"
         id="path4429"
         style="fill:#010400;fill-opacity:0.83529413" /><path
         fill="#666666"
         d="M486.708,21.642c-0.57-7.067-4.332-9.119-7.523-9.119c-4.561,0-7.068,2.964-7.068,8.094    c0,14.021,28.728,20.748,28.728,43.091c0,13.566-9.12,21.09-22.344,21.09c-13.109,0-20.634-10.487-21.203-22.8l13.451-1.938    c0.57,8.322,3.876,12.426,8.437,12.426c4.901,0,8.207-2.622,8.207-7.523c0-16.302-28.728-20.634-28.728-44.231    c0-13.11,7.98-20.521,21.888-20.521c11.515,0,18.354,8.322,19.608,19.95L486.708,21.642z"
         id="path4431"
         style="fill:#010400;fill-opacity:0.83529413" /></g><g
       id="g4433"><path
         fill="#00ABBA"
         d="M0,30.34C0,13.612,9.84,0,31.161,0c21.32,0,31.16,13.612,31.16,30.34v61.009    c0,16.729-9.84,30.34-31.16,30.34C9.84,121.688,0,108.077,0,91.349V30.34z M20.336,90.856c0,8.856,2.624,13.12,10.824,13.12    c8.2,0,10.824-4.264,10.824-13.12V30.832c0-8.856-2.624-13.12-10.824-13.12c-8.2,0-10.824,4.264-10.824,13.12V90.856z"
         id="path4435" /><path
         fill="#00ABBA"
         d="M73.308,19.352V1.64h53.792v19.353l-37.393,81.345h37.393v17.712H68.716v-19.353l37.885-81.345H73.308z"
         id="path4437" /></g></g></svg>